<svg version="1" xmlns="http://www.w3.org/2000/svg" width="682.667" height="682.667" viewBox="0 0 512.000000 512.000000"><path d="M304 1c0 .5.8 1 1.8 1.1.9 0 2.6.2 3.7.4s3.9.6 6.2 1c2.3.3 5.7 1.9 7.8 3.5 2 1.6 4.9 3.1 6.5 3.5 1.6.3 4.9 2.4 7.3 4.6 2.5 2.1 5.3 3.9 6.3 3.9 1.9 0 8.4 4 8.4 5.2 0 .4 1.9 1.7 4.3 2.9 2.3 1.2 5.6 3.6 7.2 5.4 1.7 1.7 4.8 4.5 7 6 7.8 5.5 18.6 16.9 20.7 21.7 1.1 2.7 2.4 4.8 2.9 4.8s1.6 1.1 2.5 2.5c1.8 2.8 7.4 16.2 7.4 17.7 0 2.3-3.4-2-6.2-8-2.2-4.6-5.3-8.6-11.6-14.9-4.8-4.7-10-9.1-11.5-9.9-1.5-.8 1.7 3 7.3 8.6 5.5 5.6 10.3 11.3 10.6 12.7.5 2-.1 4.1-2.1 7.9-2.4 4.5-2.9 6.4-2.8 12.1.2 11.8-1.5 23.6-4.3 29.8l-2.7 5.8 1.8 10.1c1 5.6 2.8 15 4.1 21 1.2 5.9 2 11.5 1.7 12.2-.8 2.2-5 2.8-10.7 1.5-2.8-.6-8.9-1-13.6-.9-6.3.2-9.4-.2-12-1.4-6.8-3.3-11.7-3.9-24.8-3.3-7 .4-15.3 1.3-18.5 2.1-3.2.7-7.6 1.1-10 .8-7-1-7.1-.5-5.7 21.3.7 10.3 1.3 22.7 1.4 27.4.1 10.3 1.3 12.1 8.9 14 5 1.2 5.1 1.2 7.4-1.7 1.3-1.6 2.9-3.5 3.5-4.3 1.3-1.6 6.5-1.2 17.8 1.5 11.4 2.6 39.9 2.4 43.1-.3 2.8-2.4 13-5.4 18.7-5.6 4.8-.2 5.6.1 7.5 2.5 3 3.9 2.8 18-.3 27.4-3.3 9.7-10.3 24.5-15.4 32.2-5 7.7-21.4 24.7-26.6 27.7-2.9 1.7-3.6 2.7-3.8 5.9-.3 3.5.2 4.4 4.7 9l5.1 5.2-.6 6.3c-.5 4.5-1.4 7.1-3 9-2.9 3.3-4.9 2.3-8.3-4.4-1.4-2.7-4.8-6.6-7.9-9.1-4.9-4-5.9-4.4-10.8-4.4-10.3 0-13.3-3.5-13.3-15 0-3.6-.7-9-1.6-12-.8-3-2-11.6-2.5-19-.6-7.4-1.9-17.1-3-21.5-1.1-4.4-2-9-2-10.1 0-2.9-3.3-6.9-7-8.4-7-2.9-12.9 3.7-11.5 12.9.8 5.6 3.6 8.5 7.3 7.8 5-1 12.3 9.1 9.2 12.8-1.6 1.9-5.7 1.9-9 0-4-2.3-6.6-1.8-13.7 2.5-10 6-20.8 6.7-31.3 1.8-5.2-2.3-5.8-2.4-9.5-1.1-7.2 2.5-12.5 5.5-12.5 7 0 .8 1.6 4.2 3.6 7.5 2.7 4.4 4.7 6.5 8 8.1 3.3 1.6 4.7 3 5.9 6.1.9 2.3 2.6 5.1 3.8 6.4 1.9 2.1 2 2.6.8 5.5-.7 1.8-1.6 4.5-1.9 6.1-.4 2.6-.2 2.8 1.4 2.1 2.2-.9 3.3-.9 9.6.3 2.6.5 5.3 1.4 6.1 2.1.9.6 5.4 1.2 10.7 1.4 7.7.2 9.5.5 10.4 2 2.8 4.7-10.4 8.5-25.2 7.2-4.8-.3-12.2-.9-16.6-1.1-11.3-.7-13.8-2.4-9.6-6.9 1.1-1.1 2.3-3.5 2.6-5.3.5-2.6.3-3.2-1.1-3.2-1 0-3.3-1.2-5.2-2.6l-3.4-2.6-5.2 5.2c-2.9 2.9-6.3 5.7-7.7 6.2-3.4 1.3-8.8.1-10-2.2-.6-1.1-1.6-2-2.2-2-.6 0-1.6-.7-2.3-1.6-1.1-1.5-1.7-1.4-7.1 1.5-5.4 2.9-6.1 3.6-7.2 7.6-2.1 7.8-1.6 10.9 2.6 15.9 2.6 3.1 4.5 4.5 6.3 4.5 3 .1 12.9-3.1 17.9-5.8 3.3-1.7 5.3-1.8 37.5-1 18.7.5 37.8 1.3 42.4 1.8 12.7 1.4 14.1 4.3 4.8 10.1-2.9 1.8-6.4 4.1-7.9 5.1-3.4 2.4-3.6 2.3-8.9-.1-2.7-1.2-6.6-2-10.2-2-3.6 0-5.6-.4-5.2-1 1.1-1.7-3.9-1.1-7.8 1-3.5 1.9-4.5 2-14 1-5.6-.5-11.1-1.2-12.3-1.6-1.2-.3-2.5.1-3.3 1-1.1 1.3-.7 2.3 1.9 6 2.4 3.3 3.4 6 3.9 10.3.5 4.8 1 6 3.1 7 1.4.7 3.5 1.3 4.8 1.3 1.3 0 3.6.7 5.2 1.5s5.2 2 8 2.6c2.8.6 6.3 2.1 7.8 3.4l2.7 2.3 2.9-2.5c4.6-3.9 6.8-2.8 8.6 4.2l1.5 6 5.3.7c6.8 1 9 2.2 9.8 5.5.6 2.1.1 3.1-2 5-2.2 1.8-3.9 2.3-8.5 2.3-6.1 0-9.4 1.6-16.7 8-4.8 4.1-10.9 5.3-18.6 3.5-7.9-1.9-7.3-1.9-8.6 1-1.3 2.8-4.8 3.6-3.8.9.3-.9.9-2.7 1.3-4.1.5-2.4.4-2.5-1.8-2-6.6 1.9-9.5 1.8-14.1-.3-4.2-1.8-4.8-2.5-4.8-5.1 0-3.4-2.6-8.5-4.8-9.4-.7-.3-2.2 0-3.2.5-1 .6-2.3 1-2.8 1-1.4 0-8.8-13.6-10.1-18.6-.6-2.2-2.1-4.9-3.5-6.1-1.8-1.6-2.5-3.5-3-8.6-.8-7.5-2-9-8.6-10.7-5.7-1.5-12-5.5-12.1-7.8 0-1-.3-1.2-.6-.5-1.4 3.6-5.1-.4-10.2-11.2-2.1-4.4-4.6-11.4-5.6-15.5-.9-4.1-2.3-9.3-3-11.5-4.4-13.4-6.1-23.7-7.5-45.1-1-16.4-2.6-25.2-4.3-23.5-.7.7-.7 4 .1 10.5 1.8 14.1 1.6 16.6-.9 16.6-5.8 0-9-6.2-8.8-17.3.1-9.9-3-31.7-5.6-39.2-1.6-4.4-2-10.2-1.7-21 .2-6.4.4-6.8 1.7-5.1.9 1.2 1.5 4.2 1.5 7.7 0 7.2 1.7 8.6 2.5 2.2.9-7.1 2.3-11.9 4-13.3 1.2-1 .7-2.1-3.1-7.3-2.5-3.4-5.2-6.4-6-6.7-1.3-.5-1.2-1 .6-3.3 3.3-4.1 8.3-3.8 12.6.9 1.9 1.9 3.4 4.5 3.4 5.8 0 1.2.6 3.1 1.4 4.1 1.2 1.7 1.4 1.5 2-2.1.4-2.1 1.3-6.6 2.2-9.9l1.5-6-3.7-9c-2.6-6.5-3.8-11-4.2-16.3-.4-6.7-.3-7.5 2.3-11.2 2.1-3 3-5.8 3.5-11.2.5-4 1.1-8.7 1.5-10.3.3-1.7.1-5.9-.6-9.5-.6-3.6-1.1-8.1-1-10 .2-4.2 5-14.8 9-19.9 1.6-2 3.3-4.9 3.6-6.4.4-1.4 3.4-5.5 6.6-9.1 3.6-3.9 5.2-6.2 4-5.9-3.7 1-12.4 10.5-15.1 16.6-1.1 2.4-3.3 6.1-5 8.2-1.6 2.1-3.5 5.6-4 7.9-3.3 12.9-5.2 17.7-6.5 16.4-1-.9 2.4-17.8 4.5-22.5 1.1-2.5 2-5.1 2-5.7 0-2.2 8.2-15.1 11.9-18.7 2-1.9 6.2-6.3 9.4-9.7 3.2-3.4 7.5-7.3 9.5-8.6 2.1-1.3 7.6-5.6 12.2-9.6 7.9-6.7 16.1-11.7 22-13.5 1.4-.4 3.6-1.6 5-2.6 1.4-.9 5.6-2.5 9.3-3.5 6.3-1.7 8.8-3.4 5-3.4-1 0-15.1.9-31.3 2.1-16.2 1.1-39.2 2.7-51 3.4-11.8.8-23.3 1.6-25.5 1.9-2.2.2-12.1.9-22 1.6-9.9.6-23.6 1.5-30.5 2-6.9.5-24.6 1.6-39.5 2.5-14.8.9-28 1.9-29.2 2.1L0 21v491h214.2l-4.4-5.1c-6.7-7.9-7.3-8.7-12.6-19.1-2.8-5.3-6.2-11.4-7.6-13.5-7.5-11.5-12.1-29.7-11.1-44.4l.7-9.7 3-.6c1.7-.3 4.8-.6 6.9-.6 3.6 0 4 .3 6.3 4.7 1.3 2.7 5.5 7.8 9.2 11.6 5.8 5.8 12.4 14.6 12.4 16.4 0 .8 8 11.5 14 18.8 8.1 9.9 17.2 23.3 22 32.4l4.5 8.6 41.2.3 41.2.2 3.7-5.5c2-3.1 5.6-7.1 7.9-9.1 3-2.4 5.6-6.1 8.6-11.9 6-12.1 15.2-21.9 24.5-26.1 5.7-2.6 7.4-3.9 8.7-6.7 3.3-7 1.4-17.5-6-32-1.9-3.8-3.1-7.3-2.6-7.8 1.3-1.3 21.1 18 22.8 22.3 1.1 2.8 1.4 8 1.3 22.9-.1 18.1-.3 19.7-2.8 27-3 8.4-6.1 14.2-11.5 21.3-1.9 2.5-3.5 4.8-3.5 5.1 0 .3 27.2.5 60.5.5H512V0H408c-68.7 0-104 .3-104 1zM144.9 178.9c.9.6 1.1 1.6.7 2.7-.7 1.8-.8 1.8-2.2 0-2.3-3.2-1.6-4.6 1.5-2.7zm272.9 7.8c.2.8-.5 1.3-1.8 1.3-1.1 0-3.4.7-5 1.5-3.8 2-5.3 0-2-2.7 2.6-2.1 8.1-2.1 8.8-.1zM349 213.9c0 1.3-2.7 2.1-7.5 2.1-7.8 0-8.5-1.5-1-2.1 3.9-.3 7.3-.6 7.8-.7.4-.1.7.2.7.7z"/><path d="M351.5 42c-.7 1.2 2.2 1.2 5 0 1.7-.7 1.5-.9-1.2-.9-1.7-.1-3.5.3-3.8.9zM151.8 153.2c-.6 10.1.4 13.3 2.1 7.2 1.5-5.3 1.3-12.5-.3-14.7-1.2-1.5-1.4-.5-1.8 7.5zM266.7 167.9c-1.4 2.1-2.1 2.3-6.6 1.7-3.6-.5-5.9-.2-7.9.8-2.7 1.4-3.4 1.3-8.8-.9-7-2.9-19.4-3.3-25.9-1-5.1 1.9-15.2 3.4-28.6 4.4-17.7 1.2-24.9 6.5-24.9 18.2 0 4.6.4 6.2 2.1 7.8 2.4 2.2 1.8 4.1-1.4 4.1-2.2.1-2.2.1-.2 1.6 1.1.8 3.8 1.9 6 2.5 8.5 2.1 12.1 3.9 13.9 7 1.3 2.3 4.1 4.2 9.5 6.7 8.7 4 17.7 5.1 27.2 3.4 6.2-1.2 25-10 28.7-13.5 3.2-3 5.7-8.1 7.1-14.6.6-2.9 2-6.6 3.2-8.2 1.1-1.5 2.8-5.2 3.8-8.2 1-3 2.6-6.8 3.6-8.6 2-4 1.5-6.3-.8-3.2zM225 208.5c2.6 1.4 2.4 1.7-3 2.9-1.4.3-6.8 0-12.2-.6-7.4-.8-9.5-1.4-9.1-2.4.7-2 20.8-1.9 24.3.1zM138.5 199c-.4.6.3 3.4 1.4 6.3 1.9 5.3 1.9 5.4-.1 9.8-2.1 4.7-2.1 7 .2 20.9 1.6 10.1 2.1 11.3 3.1 7 .5-2.2.3-6.5-.6-11.7-1.2-6.9-1.2-9 0-14 2-8.1 1.8-12-.6-15.9-2.3-3.7-2.5-3.9-3.4-2.4zM134 245.5c0 1.8 4.1 8.5 5.3 8.5 1.4 0 .7-2.6-1.8-6.3-2.8-4-3.5-4.5-3.5-2.2zM164.5 324c-1.1 3.5 3.8 9.2 6.5 7.5 1.3-.8 1.3-5.1 0-7.6-1.4-2.5-5.7-2.5-6.5.1zM246.6 329.6c-1 3.9.9 5.2 2.2 1.6 1-2.9.7-4.2-.9-4.2-.4 0-1 1.2-1.3 2.6zM207 403c0 1.8.4 2.9 1 2.5.6-.3 1-1.5 1-2.5s-.4-2.2-1-2.5c-.6-.4-1 .7-1 2.5z"/></svg>